<?xml version="1.0" encoding="UTF-8"?>
<svg xmlns="http://www.w3.org/2000/svg" xmlns:xlink="http://www.w3.org/1999/xlink" width="14pt" height="14pt" viewBox="0 0 14 14" version="1.1">
<g id="surface1">
<path style=" stroke:none;fill-rule:nonzero;fill:rgb(89.019608%,72.156863%,45.098039%);fill-opacity:1;" d="M 13.839844 10.917969 L 9.640625 6.863281 L 11.296875 5.261719 L 12.277344 4.316406 L 13.699219 2.941406 C 14.097656 2.558594 14.097656 1.925781 13.699219 1.542969 L 12.511719 0.394531 C 12.324219 0.214844 12.066406 0.101562 11.785156 0.101562 C 11.507812 0.101562 11.25 0.214844 11.0625 0.394531 L 9.640625 1.769531 L 8.660156 2.714844 L 7.003906 4.316406 L 2.851562 0.304688 C 2.59375 0.0585938 2.125 0.0585938 1.871094 0.304688 L 0.214844 1.90625 C -0.0664062 2.152344 -0.0664062 2.582031 0.214844 2.851562 L 0.703125 3.324219 L 2.03125 4.609375 L 3.339844 5.871094 L 4.367188 6.863281 L 0.621094 10.476562 C 0.550781 10.507812 0.511719 10.570312 0.492188 10.644531 L 0.00390625 13.351562 C 0.00390625 13.441406 0.0273438 13.507812 0.0742188 13.550781 C 0.121094 13.597656 0.167969 13.621094 0.238281 13.621094 C 0.261719 13.621094 0.261719 13.621094 0.28125 13.621094 L 2.976562 13.140625 C 2.992188 13.144531 3.015625 13.148438 3.035156 13.148438 C 3.105469 13.148438 3.175781 13.125 3.199219 13.078125 L 7.003906 9.40625 L 7.304688 9.699219 L 7.960938 10.332031 L 11.203125 13.460938 C 11.320312 13.574219 11.460938 13.621094 11.601562 13.621094 C 11.738281 13.621094 11.878906 13.574219 11.972656 13.460938 L 13.839844 11.660156 C 14.050781 11.457031 14.050781 11.121094 13.839844 10.917969 Z M 3.035156 12.582031 L 2.21875 11.796875 L 9.976562 4.328125 L 10.78125 5.105469 Z M 11.390625 0.710938 C 11.601562 0.507812 11.972656 0.507812 12.183594 0.710938 L 13.375 1.859375 C 13.582031 2.0625 13.582031 2.421875 13.375 2.625 L 12.113281 3.84375 L 10.128906 1.925781 Z M 9.804688 2.242188 L 10.792969 3.199219 L 11.785156 4.15625 L 11.132812 4.789062 L 9.148438 2.875 Z M 4.496094 6.355469 L 4.996094 5.871094 C 5.089844 5.78125 5.089844 5.644531 4.996094 5.554688 C 4.902344 5.464844 4.761719 5.464844 4.667969 5.554688 L 4.167969 6.039062 L 3.828125 5.710938 L 4.648438 4.925781 C 4.738281 4.832031 4.738281 4.699219 4.648438 4.609375 C 4.554688 4.519531 4.414062 4.519531 4.320312 4.609375 L 3.503906 5.398438 L 3.175781 5.082031 L 3.667969 4.609375 C 3.761719 4.519531 3.761719 4.382812 3.667969 4.292969 C 3.574219 4.203125 3.433594 4.203125 3.339844 4.292969 L 2.851562 4.765625 L 2.523438 4.449219 L 3.339844 3.664062 C 3.433594 3.570312 3.433594 3.4375 3.339844 3.347656 C 3.246094 3.257812 3.105469 3.257812 3.011719 3.347656 L 2.195312 4.136719 L 1.847656 3.796875 L 2.335938 3.324219 C 2.429688 3.234375 2.429688 3.097656 2.335938 3.007812 C 2.242188 2.917969 2.101562 2.917969 2.011719 3.007812 L 1.519531 3.480469 L 1.191406 3.167969 L 2.011719 2.378906 C 2.101562 2.289062 2.101562 2.152344 2.011719 2.0625 C 1.917969 1.972656 1.777344 1.972656 1.683594 2.0625 L 0.867188 2.851562 L 0.539062 2.535156 C 0.445312 2.445312 0.445312 2.3125 0.539062 2.21875 L 2.195312 0.621094 C 2.242188 0.574219 2.289062 0.554688 2.359375 0.554688 C 2.40625 0.554688 2.476562 0.574219 2.523438 0.621094 L 6.675781 4.632812 L 4.691406 6.546875 Z M 8.824219 3.210938 L 9.640625 4 L 1.882812 11.46875 L 1.078125 10.691406 Z M 0.890625 11.140625 L 1.65625 11.882812 C 1.667969 11.90625 1.683594 11.929688 1.707031 11.953125 L 2.550781 12.765625 L 0.539062 13.101562 Z M 13.511719 11.34375 L 11.648438 13.148438 C 11.625 13.167969 11.554688 13.167969 11.53125 13.148438 L 9.113281 10.816406 L 9.941406 10.015625 C 10.035156 9.925781 10.035156 9.789062 9.941406 9.699219 C 9.851562 9.609375 9.710938 9.609375 9.617188 9.699219 L 8.789062 10.5 L 8.449219 10.171875 L 8.941406 9.699219 C 9.03125 9.609375 9.03125 9.476562 8.941406 9.382812 C 8.847656 9.292969 8.707031 9.292969 8.613281 9.382812 L 8.125 9.859375 L 7.796875 9.542969 L 8.613281 8.753906 C 8.707031 8.664062 8.707031 8.527344 8.613281 8.4375 C 8.519531 8.347656 8.378906 8.347656 8.285156 8.4375 L 7.46875 9.226562 L 7.328125 9.089844 L 9.3125 7.175781 L 13.511719 11.230469 C 13.535156 11.253906 13.535156 11.320312 13.511719 11.34375 Z M 13.511719 11.34375 "/>
</g>
</svg>
