<?xml version="1.0" encoding="UTF-8"?>
<svg xmlns="http://www.w3.org/2000/svg" xmlns:xlink="http://www.w3.org/1999/xlink" width="14pt" height="14pt" viewBox="0 0 14 14" version="1.1">
<g id="surface1">
<path style=" stroke:none;fill-rule:nonzero;fill:rgb(89.019608%,72.156863%,45.098039%);fill-opacity:1;" d="M 14 6.851562 C 14 10.585938 10.867188 13.609375 7 13.609375 C 3.132812 13.609375 0 10.585938 0 6.851562 C 0 3.121094 3.132812 0.09375 7 0.09375 C 10.867188 0.09375 14 3.121094 14 6.851562 Z M 14 6.851562 "/>
<path style="fill:none;stroke-width:1.5;stroke-linecap:butt;stroke-linejoin:miter;stroke:rgb(100%,100%,100%);stroke-opacity:1;stroke-miterlimit:4;" d="M 17 8.593192 L 11 8.593192 C 9.34375 8.593192 8 9.936384 8 11.595145 L 8 17.59096 C 8 19.249721 9.34375 20.592913 11 20.592913 L 17 20.592913 C 18.65625 20.592913 20 19.249721 20 17.59096 L 20 11.595145 C 20 9.936384 18.65625 8.593192 17 8.593192 Z M 17 8.593192 " transform="matrix(0.5,0,0,0.482759,0,0)"/>
<path style="fill:none;stroke-width:1.5;stroke-linecap:round;stroke-linejoin:round;stroke:rgb(100%,100%,100%);stroke-opacity:1;stroke-miterlimit:4;" d="M 16.398438 14.216797 C 16.476562 14.718471 16.390625 15.228237 16.15625 15.67327 C 15.921875 16.118304 15.554688 16.482422 15.101562 16.708984 C 14.65625 16.935547 14.140625 17.016462 13.648438 16.935547 C 13.148438 16.854632 12.6875 16.619978 12.328125 16.263951 C 11.96875 15.907924 11.734375 15.446708 11.65625 14.953125 C 11.578125 14.451451 11.65625 13.941685 11.882812 13.48856 C 12.109375 13.035435 12.46875 12.671317 12.921875 12.436663 C 13.367188 12.202009 13.875 12.121094 14.375 12.193917 C 14.890625 12.266741 15.359375 12.509487 15.726562 12.873605 C 16.085938 13.237723 16.328125 13.707031 16.398438 14.216797 Z M 16.398438 14.216797 " transform="matrix(0.5,0,0,0.482759,0,0)"/>
</g>
</svg>
