<?xml version="1.0" encoding="UTF-8"?>
<svg xmlns="http://www.w3.org/2000/svg" xmlns:xlink="http://www.w3.org/1999/xlink" width="14pt" height="14pt" viewBox="0 0 14 14" version="1.1">
<g id="surface1">
<path style=" stroke:none;fill-rule:nonzero;fill:rgb(89.019608%,72.156863%,45.098039%);fill-opacity:1;" d="M 13.203125 10.570312 C 12.910156 10.367188 12.578125 10.257812 12.238281 10.238281 C 10.960938 9.402344 10.125 8.773438 9.632812 8.285156 L 8.132812 6.785156 L 9.042969 5.765625 C 9.21875 5.863281 9.402344 5.925781 9.589844 5.953125 C 9.726562 5.976562 9.820312 5.976562 9.914062 5.976562 C 10.101562 5.976562 10.148438 5.976562 10.335938 6.140625 C 10.242188 6.210938 10.195312 6.328125 10.195312 6.445312 C 10.195312 6.558594 10.242188 6.699219 10.335938 6.792969 L 11.152344 7.609375 C 11.265625 7.75 11.453125 7.820312 11.640625 7.820312 C 11.828125 7.820312 12.011719 7.75 12.128906 7.585938 L 13.785156 5.929688 C 13.925781 5.8125 13.996094 5.628906 13.996094 5.441406 C 13.996094 5.253906 13.925781 5.089844 13.785156 4.949219 L 12.96875 4.136719 C 12.875 4.042969 12.757812 3.996094 12.644531 3.996094 C 12.527344 3.996094 12.410156 4.066406 12.316406 4.136719 C 12.128906 3.972656 12.128906 3.925781 12.128906 3.738281 C 12.128906 3.644531 12.128906 3.527344 12.082031 3.386719 C 12.035156 3.0625 11.875 2.734375 11.617188 2.480469 L 10.777344 1.640625 C 10.289062 1.148438 10.054688 0.917969 9.425781 0.636719 C 8.070312 0.0078125 6.695312 0.125 4.691406 1.03125 C 4.574219 1.078125 4.527344 1.171875 4.550781 1.289062 C 4.574219 1.40625 4.667969 1.476562 4.785156 1.476562 L 5.085938 1.476562 C 6.113281 1.476562 6.648438 1.476562 7.582031 2.410156 C 7.992188 2.816406 8.003906 3.445312 7.636719 3.90625 C 7.585938 3.914062 7.550781 3.933594 7.511719 3.972656 L 6.476562 5.128906 L 5.691406 4.34375 C 4.832031 3.484375 4.226562 2.667969 3.761719 1.761719 C 3.738281 1.304688 3.550781 0.875 3.222656 0.542969 C 2.824219 0.148438 2.265625 -0.0390625 1.707031 0.0078125 C 1.636719 0.03125 1.566406 0.078125 1.542969 0.125 C 1.496094 0.195312 1.496094 0.285156 1.542969 0.355469 L 2.195312 1.523438 C 2.054688 1.824219 1.730469 2.011719 1.402344 1.988281 L 0.726562 0.871094 C 0.703125 0.800781 0.609375 0.753906 0.539062 0.753906 C 0.46875 0.730469 0.398438 0.777344 0.351562 0.847656 C -0.207031 1.6875 0.00390625 2.804688 0.84375 3.386719 C 1.132812 3.59375 1.457031 3.710938 1.789062 3.734375 C 1.792969 3.734375 1.792969 3.738281 1.796875 3.738281 C 2.707031 4.203125 3.523438 4.8125 4.386719 5.675781 L 5.238281 6.507812 L 0.28125 12.039062 C 0.0976562 12.226562 0.00390625 12.484375 0.00390625 12.742188 C 0.00390625 12.996094 0.0976562 13.230469 0.28125 13.417969 L 0.609375 13.742188 C 0.796875 13.90625 1.027344 14 1.261719 14 C 1.496094 14 1.75 13.90625 1.9375 13.71875 L 6.890625 8.175781 L 8.328125 9.617188 C 8.816406 10.105469 9.445312 10.964844 10.285156 12.222656 C 10.316406 12.671875 10.5 13.09375 10.824219 13.417969 C 11.171875 13.765625 11.640625 13.953125 12.128906 13.953125 C 12.199219 13.953125 12.269531 13.953125 12.316406 13.953125 C 12.386719 13.953125 12.457031 13.90625 12.503906 13.835938 C 12.550781 13.765625 12.550781 13.671875 12.503906 13.605469 L 11.828125 12.460938 C 11.988281 12.15625 12.292969 11.972656 12.644531 11.996094 L 13.296875 13.113281 C 13.320312 13.183594 13.414062 13.230469 13.484375 13.230469 C 13.574219 13.207031 13.644531 13.183594 13.691406 13.113281 C 14.253906 12.273438 14.019531 11.15625 13.203125 10.570312 Z M 7.886719 2.035156 C 7.140625 1.3125 6.578125 1.078125 5.949219 1.011719 C 7.277344 0.589844 8.257812 0.613281 9.238281 1.054688 C 9.796875 1.289062 9.984375 1.476562 10.472656 1.964844 L 11.3125 2.804688 C 11.5 2.992188 11.617188 3.226562 11.640625 3.457031 C 11.664062 3.574219 11.664062 3.667969 11.664062 3.738281 C 11.664062 3.996094 11.6875 4.179688 11.964844 4.460938 C 12.058594 4.554688 12.199219 4.601562 12.316406 4.601562 C 12.457031 4.601562 12.574219 4.554688 12.644531 4.460938 L 13.460938 5.277344 C 13.507812 5.324219 13.53125 5.371094 13.53125 5.441406 C 13.53125 5.511719 13.507812 5.558594 13.460938 5.605469 L 11.804688 7.261719 C 11.710938 7.351562 11.570312 7.351562 11.476562 7.261719 L 10.660156 6.445312 C 10.753906 6.375 10.800781 6.257812 10.777344 6.117188 C 10.777344 6 10.730469 5.859375 10.636719 5.765625 C 10.359375 5.488281 10.171875 5.464844 9.914062 5.464844 C 9.84375 5.464844 9.75 5.464844 9.632812 5.441406 C 9.378906 5.417969 9.167969 5.300781 8.980469 5.113281 L 7.980469 4.113281 C 8.492188 3.480469 8.445312 2.597656 7.886719 2.035156 Z M 0.5625 1.476562 L 1.050781 2.316406 C 1.097656 2.386719 1.167969 2.433594 1.238281 2.433594 L 1.355469 2.433594 C 1.890625 2.457031 2.382812 2.175781 2.613281 1.710938 L 2.660156 1.59375 C 2.707031 1.523438 2.707031 1.453125 2.660156 1.382812 L 2.148438 0.496094 C 2.429688 0.542969 2.683594 0.683594 2.894531 0.894531 C 3.136719 1.152344 3.289062 1.484375 3.296875 1.835938 C 3.292969 1.855469 3.292969 1.875 3.292969 1.894531 C 3.292969 2.003906 3.277344 2.109375 3.253906 2.210938 C 3.164062 2.546875 2.953125 2.84375 2.660156 3.039062 C 2.195312 3.34375 1.566406 3.34375 1.097656 3.015625 C 0.609375 2.664062 0.398438 2.035156 0.5625 1.476562 Z M 4.714844 5.347656 C 4.015625 4.625 3.3125 4.066406 2.566406 3.621094 C 2.683594 3.574219 2.824219 3.503906 2.941406 3.433594 C 3.292969 3.203125 3.523438 2.898438 3.664062 2.527344 C 4.105469 3.273438 4.667969 3.972656 5.367188 4.671875 L 6.167969 5.472656 L 5.539062 6.171875 Z M 1.613281 13.371094 C 1.425781 13.558594 1.121094 13.582031 0.9375 13.394531 L 0.609375 13.089844 C 0.515625 12.996094 0.46875 12.878906 0.46875 12.765625 C 0.46875 12.625 0.515625 12.507812 0.632812 12.390625 L 0.765625 12.242188 L 1.097656 12.578125 C 1.144531 12.625 1.191406 12.648438 1.261719 12.648438 C 1.332031 12.648438 1.378906 12.625 1.425781 12.578125 C 1.519531 12.484375 1.519531 12.34375 1.425781 12.25 L 1.074219 11.898438 L 1.382812 11.554688 L 1.75 11.925781 C 1.796875 11.972656 1.84375 11.996094 1.914062 11.996094 C 1.984375 11.996094 2.03125 11.972656 2.078125 11.925781 C 2.171875 11.832031 2.171875 11.691406 2.078125 11.597656 L 1.6875 11.207031 L 7.6875 4.496094 L 8.667969 5.476562 L 7.703125 6.554688 C 7.675781 6.566406 7.652344 6.582031 7.628906 6.605469 L 6.695312 7.65625 C 6.667969 7.683594 6.652344 7.714844 6.640625 7.746094 Z M 7.210938 7.820312 L 7.847656 7.105469 L 9.355469 8.613281 C 9.773438 9.054688 10.496094 9.617188 11.546875 10.316406 C 11.40625 10.363281 11.265625 10.433594 11.128906 10.523438 C 10.835938 10.707031 10.632812 10.957031 10.488281 11.234375 C 10.488281 11.238281 10.484375 11.242188 10.484375 11.246094 C 10.476562 11.261719 10.46875 11.28125 10.460938 11.296875 C 10.449219 11.320312 10.4375 11.34375 10.425781 11.371094 C 10.417969 11.386719 10.410156 11.402344 10.40625 11.417969 C 10.40625 11.421875 10.402344 11.425781 10.402344 11.425781 C 10.394531 11.445312 10.386719 11.464844 10.378906 11.480469 C 10.25 11.285156 10.121094 11.105469 10 10.929688 L 10.3125 10.617188 C 10.402344 10.523438 10.402344 10.386719 10.3125 10.292969 C 10.21875 10.199219 10.078125 10.199219 9.984375 10.292969 L 9.722656 10.550781 C 9.628906 10.421875 9.535156 10.296875 9.445312 10.179688 L 9.65625 9.964844 C 9.75 9.871094 9.75 9.730469 9.65625 9.640625 C 9.566406 9.546875 9.425781 9.546875 9.332031 9.640625 L 9.152344 9.816406 C 8.980469 9.609375 8.824219 9.433594 8.679688 9.289062 Z M 13.460938 12.484375 L 12.96875 11.644531 C 12.921875 11.574219 12.851562 11.527344 12.78125 11.527344 L 12.667969 11.527344 C 12.128906 11.480469 11.640625 11.785156 11.40625 12.25 L 11.359375 12.367188 C 11.3125 12.4375 11.3125 12.507812 11.359375 12.578125 L 11.875 13.464844 C 11.59375 13.417969 11.335938 13.277344 11.128906 13.066406 C 10.890625 12.8125 10.738281 12.488281 10.722656 12.144531 C 10.726562 12.125 10.730469 12.109375 10.730469 12.085938 C 10.730469 11.792969 10.824219 11.515625 10.988281 11.28125 C 11.089844 11.140625 11.214844 11.019531 11.359375 10.921875 C 11.59375 10.757812 11.851562 10.6875 12.128906 10.6875 C 12.410156 10.6875 12.691406 10.78125 12.921875 10.945312 C 13.414062 11.292969 13.621094 11.925781 13.460938 12.484375 Z M 13.460938 12.484375 "/>
</g>
</svg>
