<?xml version="1.0" encoding="UTF-8"?>
<svg xmlns="http://www.w3.org/2000/svg" xmlns:xlink="http://www.w3.org/1999/xlink" width="17pt" height="15pt" viewBox="0 0 17 15" version="1.1">
<g id="surface1">
<path style=" stroke:none;fill-rule:nonzero;fill:rgb(89.019608%,72.156863%,45.098039%);fill-opacity:1;" d="M 16.425781 5.050781 L 4.367188 0.429688 C 4.210938 0.371094 4.039062 0.453125 3.984375 0.609375 C 3.984375 0.613281 3.984375 0.613281 3.984375 0.613281 L 2.648438 4.371094 C 2.589844 4.53125 2.667969 4.707031 2.824219 4.765625 L 4.222656 5.296875 L 3.914062 6.164062 C 3.859375 6.324219 3.9375 6.503906 4.089844 6.5625 L 6.886719 7.625 L 6.683594 8.203125 C 6.496094 8.71875 6.667969 9.304688 7.105469 9.621094 L 7.105469 11.195312 L 3.097656 11.195312 C 2.90625 10.734375 2.507812 10.402344 2.035156 10.300781 L 2.035156 9.652344 C 2.035156 9.484375 1.898438 9.347656 1.734375 9.347656 L 0.535156 9.347656 C 0.371094 9.347656 0.238281 9.484375 0.238281 9.652344 L 0.238281 14.585938 C 0.238281 14.753906 0.371094 14.890625 0.535156 14.890625 L 1.734375 14.890625 C 1.898438 14.890625 2.035156 14.753906 2.035156 14.585938 L 2.035156 13.9375 C 2.507812 13.835938 2.90625 13.503906 3.097656 13.042969 L 7.105469 13.042969 L 7.105469 13.351562 C 7.105469 13.863281 7.507812 14.277344 8 14.277344 C 8.492188 14.277344 8.894531 13.863281 8.894531 13.351562 L 8.894531 9.9375 C 9.164062 9.800781 9.375 9.558594 9.476562 9.265625 L 9.683594 8.6875 L 12.199219 9.640625 C 12.234375 9.652344 12.269531 9.660156 12.300781 9.660156 C 12.425781 9.660156 12.539062 9.578125 12.582031 9.457031 L 12.695312 9.144531 C 13.664062 9.332031 14.597656 8.671875 14.777344 7.671875 C 14.847656 7.300781 14.804688 6.917969 14.652344 6.574219 L 16.460938 5.613281 C 16.605469 5.535156 16.664062 5.351562 16.589844 5.199219 C 16.554688 5.128906 16.496094 5.078125 16.425781 5.050781 Z M 7.703125 9.902344 L 7.949219 9.996094 C 8.0625 10.039062 8.179688 10.0625 8.296875 10.066406 L 8.296875 11.195312 L 7.703125 11.195312 Z M 1.4375 14.277344 L 0.832031 14.277344 L 0.832031 9.960938 L 1.4375 9.960938 Z M 2.628906 12.425781 C 2.628906 12.820312 2.390625 13.167969 2.035156 13.300781 L 2.035156 10.9375 C 2.390625 11.070312 2.628906 11.417969 2.628906 11.8125 Z M 3.234375 11.8125 L 8.296875 11.8125 L 8.296875 12.425781 L 3.234375 12.425781 Z M 8 13.660156 C 7.835938 13.660156 7.703125 13.523438 7.703125 13.351562 L 7.703125 13.042969 L 8.296875 13.042969 L 8.296875 13.351562 C 8.296875 13.523438 8.164062 13.660156 8 13.660156 Z M 9.125 8.472656 L 8.917969 9.050781 C 8.804688 9.371094 8.464844 9.535156 8.15625 9.417969 L 7.59375 9.207031 C 7.285156 9.089844 7.125 8.734375 7.242188 8.414062 L 7.445312 7.835938 L 8.957031 8.410156 Z M 12.125 8.957031 L 4.574219 6.089844 L 4.78125 5.511719 L 9.253906 7.210938 C 9.363281 7.25 9.480469 7.226562 9.5625 7.144531 L 10.398438 6.332031 L 12.742188 7.222656 Z M 14.140625 7.753906 C 13.953125 8.28125 13.445312 8.609375 12.902344 8.554688 L 13.363281 7.257812 L 14.117188 6.855469 C 14.234375 7.140625 14.242188 7.460938 14.140625 7.753906 Z M 13.132812 6.6875 C 13.117188 6.6875 13.101562 6.691406 13.085938 6.695312 L 10.433594 5.6875 C 10.328125 5.648438 10.207031 5.671875 10.125 5.753906 L 9.289062 6.566406 L 3.308594 4.296875 L 4.4375 1.113281 L 15.582031 5.386719 Z M 13.132812 6.6875 "/>
</g>
</svg>
